<svg width="84" height="28" viewBox="0 0 84 28" fill="none" xmlns="http://www.w3.org/2000/svg">
<g clip-path="url(#clip0_390_10795)">
<path d="M74.9121 8.40752C77.7794 8.40752 80.0108 9.25825 81.6065 10.9598C83.2021 12.6613 83.9999 15.0009 83.9999 17.9786C83.9999 18.3289 83.9876 18.6604 83.9627 18.9732C83.9391 19.2664 83.9268 19.4442 83.9254 19.5065L83.9251 19.5174H70.7606C70.7856 20.118 70.929 20.6747 71.1908 21.1877C71.4526 21.7006 71.7894 22.1448 72.2006 22.5201C72.6121 22.8954 73.0919 23.1895 73.6405 23.4021C74.1888 23.6148 74.775 23.7212 75.3982 23.7212C75.8685 23.7212 76.2972 23.6789 76.6853 23.5943L78.8654 27.3805C78.7283 27.433 78.5888 27.4832 78.4461 27.5308C77.5112 27.8436 76.4828 28 75.3609 28C74.0893 28 72.88 27.7811 71.7331 27.3431C70.5863 26.9053 69.5765 26.2609 68.7038 25.4102C67.8312 24.5594 67.1391 23.521 66.6281 22.2949C66.1171 21.0688 65.8616 19.6801 65.8616 18.1287C65.8616 16.6524 66.1107 15.3137 66.6095 14.1126C67.1082 12.9115 67.7749 11.8919 68.6104 11.0536C69.4454 10.2154 70.4116 9.5648 71.5085 9.10189C72.6058 8.63898 73.7403 8.40752 74.9121 8.40752ZM21.0191 8.40752C22.4652 8.40752 23.6994 8.60143 24.7216 8.98928C25.7439 9.37713 26.5729 9.89007 27.2087 10.5281C27.8444 11.1662 28.3057 11.9106 28.5924 12.7614C28.8623 13.5621 29.0051 14.3961 29.021 15.2633L29.0225 15.4263V24.5094L29.0237 24.6985C29.0291 25.1433 29.0537 25.6119 29.0973 26.1046C29.1439 26.63 29.1904 27.0519 29.2369 27.3704L29.2469 27.437H24.6842L24.6728 27.3776C24.6277 27.1333 24.5878 26.809 24.5533 26.4048C24.5159 25.9669 24.4972 25.5728 24.4972 25.2225C24.0235 25.9482 23.3441 26.5862 22.459 27.1367C21.5738 27.6872 20.4456 27.9625 19.0744 27.9625C18.102 27.9625 17.2231 27.8061 16.4377 27.4933C15.6523 27.1805 14.9854 26.7677 14.4369 26.2547C13.8883 25.7417 13.4707 25.1537 13.184 24.4906C12.8973 23.8275 12.7539 23.1332 12.7539 22.4075C12.7539 21.5818 12.8973 20.8499 13.184 20.2118C13.4707 19.5737 13.8634 19.017 14.3621 18.5416C14.8607 18.0661 15.4404 17.6908 16.1011 17.4156C16.711 17.1615 17.3687 16.9714 18.0742 16.8452L18.2516 16.815L22.7769 16.1394L22.8542 16.1275C23.3362 16.0485 23.6719 15.8961 23.8614 15.6702C24.0609 15.4325 24.1606 15.151 24.1606 14.8257C24.1606 14.1752 23.9051 13.6121 23.3939 13.1367C22.8828 12.6613 22.1037 12.4236 21.0565 12.4236C20.2488 12.4236 19.5796 12.5864 19.049 12.9119L16.6991 9.41869C17.0198 9.24722 17.3628 9.0916 17.728 8.95173C18.6754 8.58892 19.7725 8.40752 21.0191 8.40752ZM51.9931 0C52.5168 0 53.0092 0.0375335 53.4703 0.1126C53.903 0.182976 54.2203 0.264347 54.4224 0.356717L54.4615 0.375335V4.57908C54.3367 4.52905 54.1497 4.48526 53.9005 4.44772C53.6513 4.4102 53.3146 4.39141 52.8908 4.39141C52.6166 4.39141 52.3298 4.42896 52.0307 4.50402C51.7313 4.57908 51.4508 4.71044 51.189 4.89811C50.9271 5.08578 50.7152 5.34227 50.5532 5.66757C50.4013 5.97253 50.3205 6.36545 50.311 6.84634L50.3103 6.9437V8.97052H57.7902V0.262734H62.7641V20.8228H57.7902V13.2493H50.3103V27.437H45.336V13.2493H38.2301V27.437H33.2188V13.2493H30.1521V8.97052H33.2188V6.86864C33.2188 5.81769 33.3746 4.87311 33.6863 4.03487C33.998 3.1966 34.4467 2.47721 35.0327 1.87667C35.6187 1.27614 36.3231 0.813225 37.1459 0.487935C37.9686 0.162645 38.8909 0 39.9133 0C40.437 0 40.9294 0.0375335 41.3905 0.1126C41.8228 0.182976 42.1402 0.264347 42.3426 0.356717L42.3816 0.375335V4.57908C42.2569 4.52905 42.0699 4.48526 41.8207 4.44772C41.5711 4.4102 41.2348 4.39141 40.8109 4.39141C40.5364 4.39141 40.25 4.42896 39.9505 4.50402C39.6514 4.57908 39.371 4.71044 39.1091 4.89811C38.8473 5.08578 38.6354 5.34227 38.4733 5.66757C38.3215 5.97253 38.2407 6.36545 38.2312 6.84634L38.2301 6.9437V8.97052H45.336V6.86864C45.336 4.76675 45.9409 3.09651 47.1499 1.85791C48.3593 0.619303 49.9736 0 51.9931 0ZM24.1606 19.014L20.0093 19.7801C19.3611 19.8802 18.8188 20.1117 18.3825 20.4745C17.9461 20.8374 17.728 21.3816 17.728 22.1072C17.728 22.6577 17.9274 23.1519 18.3264 23.5898C18.7253 24.0277 19.3237 24.2466 20.1215 24.2466C20.6451 24.2466 21.15 24.1778 21.6362 24.0402C22.1224 23.9026 22.5525 23.6649 22.9264 23.3271C23.3004 22.9893 23.5996 22.5514 23.824 22.0134C24.0372 21.5023 24.1491 20.8614 24.1598 20.0906L24.1606 19.9678V19.014ZM74.9866 12.4611C74.3385 12.4611 73.7649 12.5737 73.2666 12.7989C72.7678 13.0241 72.344 13.3119 71.995 13.6622C71.646 14.0125 71.3778 14.4004 71.1908 14.8257C71.0193 15.2157 70.916 15.6056 70.8808 15.9955L70.8727 16.1019H79.1009C79.0759 15.6515 78.9824 15.2073 78.82 14.7694C78.658 14.3315 78.4088 13.9437 78.0721 13.6059C77.7358 13.2681 77.3119 12.9928 76.8005 12.7801C76.2895 12.5675 75.685 12.4611 74.9866 12.4611Z" fill="#EDF1F8"/>
<path d="M8.23952 8.59814C11.8229 8.59814 14.584 10.4515 16.1928 13.8442L16.2722 14.0151L11.6135 16.1754C10.8319 14.4612 9.8229 13.7692 8.23952 13.7692C6.2295 13.7692 5.16888 15.0075 5.12882 17.1199L5.12766 17.2452V27.5588H0V17.2452C0 12.389 3.12867 8.59814 8.23952 8.59814Z" fill="#EDF1F8"/>
<path fill-rule="evenodd" clip-rule="evenodd" d="M64.4312 27.5589C64.9499 27.5589 65.4381 27.5224 65.8954 27.4494C66.3526 27.3764 67.0288 27.1818 67.2267 27.0844C66.657 26.035 66.2676 25.3179 66.0581 24.9331C65.4982 23.9035 65.1791 23.319 65.1 23.1796C64.8072 23.2161 64.5967 23.2161 64.4681 23.1796C64.2755 23.1248 63.8934 22.9789 63.6341 22.7964C63.3747 22.6139 63.1645 22.3646 63.0039 22.0483C62.8433 21.732 62.7628 21.3184 62.7628 20.8075V19.1812H57.7896V20.8804C57.7896 22.8824 58.406 24.4817 59.5578 25.6782L59.6305 25.7524C60.829 26.9567 62.4292 27.5589 64.4312 27.5589Z" fill="#EDF1F8"/>
<path d="M80.4819 26.0158C81.3321 26.0158 82.0213 25.3248 82.0213 24.4725C82.0213 23.6202 81.3321 22.9292 80.4819 22.9292C79.6321 22.9292 78.9429 23.6202 78.9429 24.4725C78.9429 25.3248 79.6321 26.0158 80.4819 26.0158Z" fill="#EDF1F8"/>
</g>
<defs>
<clipPath id="clip0_390_10795">
<rect width="84" height="28" fill="white"/>
</clipPath>
</defs>
</svg>
